<svg width="33" height="36" viewBox="0 0 33 36" fill="none" xmlns="http://www.w3.org/2000/svg">
<g clip-path="url(#clip0_5_98)">
<mask id="mask0_5_98" style="mask-type:luminance" maskUnits="userSpaceOnUse" x="0" y="0" width="33" height="36">
<path d="M32.2759 0H0V36H32.2759V0Z" fill="white"/>
</mask>
<g mask="url(#mask0_5_98)">
<path d="M16.1452 9.91404C11.5632 9.91404 7.86729 13.5211 7.86729 17.9929C7.86729 22.4648 11.5632 26.0718 16.1452 26.0718C20.7272 26.0718 24.423 22.4648 24.423 17.9929C24.423 13.5211 20.7272 9.91404 16.1452 9.91404ZM16.1452 23.2453C13.1841 23.2453 10.7634 20.8898 10.7634 17.9929C10.7634 15.0961 13.1769 12.7406 16.1452 12.7406C19.1134 12.7406 21.5269 15.0961 21.5269 17.9929C21.5269 20.8898 19.1062 23.2453 16.1452 23.2453ZM26.6925 9.58358C26.6925 10.6312 25.8279 11.468 24.7617 11.468C23.6882 11.468 22.8309 10.6242 22.8309 9.58358C22.8309 8.54294 23.6954 7.69921 24.7617 7.69921C25.8279 7.69921 26.6925 8.54294 26.6925 9.58358ZM32.175 11.4961C32.0526 8.97183 31.4618 6.7359 29.567 4.89374C27.6795 3.05154 25.3885 2.47497 22.8021 2.34841C20.1364 2.20076 12.1467 2.20076 9.48108 2.34841C6.90186 2.46794 4.61087 3.04451 2.7161 4.8867C0.821339 6.72887 0.237779 8.96484 0.108099 11.489C-0.0431944 14.0906 -0.0431944 21.8883 0.108099 24.4898C0.230574 27.014 0.821339 29.25 2.7161 31.0922C4.61087 32.9343 6.8947 33.5109 9.48108 33.6375C12.1467 33.7851 20.1364 33.7851 22.8021 33.6375C25.3885 33.518 27.6795 32.9414 29.567 31.0922C31.4546 29.25 32.0453 27.014 32.175 24.4898C32.3263 21.8883 32.3263 14.0976 32.175 11.4961ZM28.7313 27.2812C28.1694 28.6594 27.0815 29.7211 25.6622 30.2766C23.5369 31.0992 18.4938 30.9094 16.1452 30.9094C13.7965 30.9094 8.7462 31.0922 6.62811 30.2766C5.21606 29.7281 4.12817 28.6664 3.55902 27.2812C2.7161 25.207 2.91062 20.2851 2.91062 17.9929C2.91062 15.7008 2.72331 10.7718 3.55902 8.70465C4.12097 7.32655 5.20885 6.26484 6.62811 5.70936C8.75341 4.8867 13.7965 5.07655 16.1452 5.07655C18.4938 5.07655 23.5441 4.89374 25.6622 5.70936C27.0743 6.2578 28.1622 7.31952 28.7313 8.70465C29.5742 10.7789 29.3797 15.7008 29.3797 17.9929C29.3797 20.2851 29.5742 25.214 28.7313 27.2812Z" fill="#FFBABA"/>
</g>
</g>
<defs>
<clipPath id="clip0_5_98">
<rect width="32.2759" height="36" fill="white"/>
</clipPath>
</defs>
</svg>
